<?xml version="1.0" encoding="utf-8"?>
<!-- Generator: Adobe Illustrator 28.3.0, SVG Export Plug-In . SVG Version: 6.00 Build 0)  -->
<svg version="1.1" id="Layer_1" xmlns="http://www.w3.org/2000/svg" xmlns:xlink="http://www.w3.org/1999/xlink" x="0px" y="0px"
	 viewBox="0 0 1785.9 510.3" style="enable-background:new 0 0 1785.9 510.3;" xml:space="preserve">
<style type="text/css">
	.st0{fill:#69E185;}
	.st1{fill:#C9712F;}
</style>
<g>
	<g>
		<path d="M591.1,334.3c-13.8-7.3-20.7-15.9-20.7-26h-92l-24,40.1h-14.2c-4.8-3.2-7.2-6.4-7.2-9.6v-3.9
			c12.7-41.3,24.3-75.5,35-102.8s20.4-47.3,29.1-60.3c0.8-0.7,1.7-1.4,2.6-2.1c0.9-0.7,2-1.3,3.1-1.8l3.3,0.6h0.6l3.9-0.6
			c21.3,0,55.3,49.6,102.2,148.7v3.9c-3.5,9.1-8.2,13.7-14.2,13.7c-0.6,0-1.9-0.2-3.9-0.6L591.1,334.3z M487.5,278.5h65.3v-1.2
			c-4.9-14.1-18-34.8-39.4-62.1L487.5,278.5z"/>
		<path d="M652.3,239.9c8.8,13.3,17,26,24.5,38.1s14.5,23.9,20.9,35.3h1.2c14.5-30.2,31.1-59.9,49.8-89c11-15.3,18.9-23,23.6-23h1.2
			c2,0,3.6,0.2,5,0.6c1.6-0.4,3.2-0.6,5-0.6h1.2c3.1,0,6.6,3.5,10.6,10.6v8.7c-1,2.6-5.8,11.2-14.2,25.9
			c-8.5,14.7-20.7,35.5-36.8,62.5c-8,13.1-14.9,23.9-20.8,32.4c-5.9,8.5-10.8,14.9-14.7,19.3h-21.8c-8.8-11.3-17.2-23.3-25.2-35.9
			c-8-12.7-15.7-25.6-23-38.8c-7.4-13.2-14.4-26.6-21.2-40c-6.7-13.4-13.3-26.6-19.6-39.6c4.6-3.3,7.7-5,9.3-5h2.5
			c1,0,2.3,0.4,3.7,1.2c0.2-0.8,0.6-1.2,1.2-1.2h5.6C631.3,210.5,641.9,223.4,652.3,239.9z"/>
		<path d="M956.9,259c5.9,19.4,8.9,31.9,8.9,37.7c0,53.2-27.3,79.8-82,79.8c-36.6,0-63.2-17-79.8-51c-5.9-12.1-8.9-24.7-8.9-37.7
			c0-34.2,13.3-57.9,39.8-70.9c27.4-7.4,42.2-11,44.3-11C907.1,205.8,933,223.5,956.9,259z M888.5,341.5c26.8,0,40.1-14,40.1-41.9
			c0-26.1-17.6-43.1-52.7-50.9c-24.3,6.3-36.4,18.4-36.4,36.3c-1.2,2.2-1.9,4.6-1.9,7.3C843.3,325.1,860.3,341.5,888.5,341.5z"/>
		<path d="M1072.7,180.1c28.8,0,55.6,18.4,80.3,55.1c6.1,20.2,9.2,33.2,9.2,39.1c0,21.4-6.1,40.5-18.4,57.4v2.2
			c10.7,11.6,16,20.8,16,27.5c-2,6.2-5.8,10.8-11.5,13.8h-6.8c-7.7,0-16.9-7.7-27.5-23c-13.5,3.1-25.7,4.7-36.7,4.7
			c-37.8,0-65.3-17.6-82.6-52.7c-6.1-12.8-9.2-25.8-9.2-39.1c0-35.4,13.8-59.9,41.4-73.4C1055.1,183.9,1070.4,180.1,1072.7,180.1z
			 M1065.4,218c-26.9,7.2-40.3,20.6-40.3,40.3c-1.3,2.3-2,5-2,8.1c6.3,36.2,25.2,54.3,56.5,54.3c2.3,0,7.6-1.3,16-4
			c-6.7-13-10.1-21.7-10.1-26.1v-6.1c0-2.1,2-4.1,6.1-6.1h8.1l20.2,20.2c2.6-9.1,3.9-17.2,3.9-24.3
			C1123.7,245.3,1104.3,226.5,1065.4,218z"/>
		<path d="M1350,347.8c-13.8-7.3-20.7-15.9-20.7-26h-92l-24,40.1h-14.2c-4.8-3.2-7.2-6.4-7.2-9.6v-3.9c12.7-41.3,24.3-75.5,35-102.8
			c10.7-27.2,20.4-47.3,29.1-60.3c0.8-0.7,1.7-1.4,2.6-2.1c0.9-0.7,2-1.3,3.1-1.8l3.3,0.6h0.6l3.9-0.6c21.3,0,55.3,49.6,102.2,148.7
			v3.9c-3.5,9.1-8.2,13.7-14.2,13.7c-0.6,0-1.9-0.2-3.9-0.6L1350,347.8z M1246.3,292.1h65.3v-1.2c-4.9-14.1-18-34.8-39.4-62.1
			L1246.3,292.1z"/>
		<path d="M1548.5,265.2c0,61.8-39.7,97.4-119,106.7c-16.3,0-24.4-33.6-24.4-100.7c-2.5,0-4.5-28.5-6.1-85.4
			c7.6-6.1,14.7-9.2,21.3-9.2h27.5c54.9,0,88.4,24.4,100.7,73.3V265.2z M1514.9,256c0-27.8-26.4-45.1-79.4-52c0,2.1-1,3.1-3,3.1
			l12.1,113C1491.5,312.9,1514.9,291.5,1514.9,256z"/>
		<path d="M1743,259c5.9,19.4,8.9,31.9,8.9,37.7c0,53.2-27.3,79.8-82,79.8c-36.6,0-63.2-17-79.8-51c-5.9-12.1-8.9-24.7-8.9-37.7
			c0-34.2,13.3-57.9,39.8-70.9c27.4-7.4,42.2-11,44.3-11C1693.2,205.8,1719,223.5,1743,259z M1674.5,341.5c26.8,0,40.1-14,40.1-41.9
			c0-26.1-17.6-43.1-52.7-50.9c-24.3,6.3-36.4,18.4-36.4,36.3c-1.2,2.2-1.9,4.6-1.9,7.3C1629.4,325.1,1646.3,341.5,1674.5,341.5z"/>
	</g>
	<g>
		<path class="st0" d="M380.2,274.9c-1.6-41.7-18.9-78.5-49.9-106.4c-13.9-14.3-31.6-28.5-52.4-42.3c8-40.8,6.4-58.3-15.7-77.7
			l-1.2-1l-1.5-0.4c-16.5-4.7-29.3-3.8-39,2.5c-14.9,9.8-19.9,30.4-22.6,58.6c-65.7,6.1-120.9,47.7-148,112
			C21.8,287,31.5,360.3,74.8,406.9c1.7,1.7,5.2,5.3,78.4,49l0.6,0.3l0.6,0.2c18,6.6,36.2,9.9,54.4,9.9c19.6,0,39-3.9,57.6-11.6
			c31.9-13.2,60.9-37.8,81.6-69.3C370.2,351.7,381.7,312.4,380.2,274.9z M314,285.5c-0.1,29-20.1,58.1-59.3,86.6
			c-43.6,31.7-91.1,14.6-116.7-14.7c-21.9-25-32.6-59.8-28-90.9c2.4-16.2,10.2-38.8,34-54.1c32.3-20.8,55-28.3,72.1-28.3
			c22.8,0,35.8,13.2,48.7,26.2c5.2,5.3,10.1,10.2,15.6,14.3C296.8,236.5,314.1,258.9,314,285.5z"/>
		<path class="st1" d="M205.1,237.9c-13.4,0-26.7,9-37.7,25.2c-9.2,13.6-15.1,30.5-15.1,42.9c0,24.7,23.7,44.8,52.8,44.8
			s52.8-20.1,52.8-44.8c0-12.4-5.9-29.3-15.1-42.9C231.9,246.8,218.5,237.9,205.1,237.9z"/>
	</g>
</g>
</svg>
